<svg xmlns="http://www.w3.org/2000/svg" viewBox="0 0 1660 760" width="1660" height="760" font-family="Excalifont, 'Comic Sans MS', 'Segoe UI', 'Malgun Gothic', sans-serif">
<rect width="1660" height="760" fill="#ffffff"/>
<rect x="400" y="40" width="300" height="80" rx="8" fill="#c3fae8" opacity="0.85"/>
<path d="M399.7,38.9 C499.1,40.4 598.9,40.1 700.0,38.8" fill="none" stroke="#099268" stroke-width="2" stroke-linecap="round"/>
<path d="M700.8,39.0 C699.8,65.5 698.9,93.1 699.3,120.3" fill="none" stroke="#099268" stroke-width="2" stroke-linecap="round"/>
<path d="M698.8,120.9 C601.2,120.2 499.7,121.2 399.5,119.1" fill="none" stroke="#099268" stroke-width="2" stroke-linecap="round"/>
<path d="M400.2,120.4 C399.0,92.8 400.8,65.8 399.7,40.1" fill="none" stroke="#099268" stroke-width="2" stroke-linecap="round"/>
<path d="M399.8,39.5 C498.9,38.9 599.2,40.5 700.2,39.9" fill="none" stroke="#099268" stroke-width="2" stroke-linecap="round"/>
<path d="M700.2,40.1 C699.5,67.4 700.5,92.7 701.0,120.6" fill="none" stroke="#099268" stroke-width="2" stroke-linecap="round"/>
<path d="M700.7,119.1 C599.4,121.2 499.0,119.8 400.0,118.8" fill="none" stroke="#099268" stroke-width="2" stroke-linecap="round"/>
<path d="M399.5,120.5 C400.4,94.0 400.2,67.6 400.2,40.2" fill="none" stroke="#099268" stroke-width="2" stroke-linecap="round"/>
<text text-anchor="middle" font-size="20" fill="#099268"><tspan x="550.0" y="73.5">Cite Web UI</tspan></text>
<text text-anchor="middle" font-size="16" fill="#1e1e1e"><tspan x="550.0" y="98.5">chat interface</tspan></text>
<rect x="20" y="190" width="330" height="80" rx="8" fill="#fff3bf" opacity="0.85"/>
<path d="M20.4,191.3 C129.9,190.4 238.9,190.5 350.8,189.4" fill="none" stroke="#f08c00" stroke-width="2" stroke-linecap="round"/>
<path d="M349.1,189.0 C349.7,217.1 348.8,243.2 348.9,270.7" fill="none" stroke="#f08c00" stroke-width="2" stroke-linecap="round"/>
<path d="M348.9,269.9 C239.0,269.3 129.7,271.0 20.1,271.0" fill="none" stroke="#f08c00" stroke-width="2" stroke-linecap="round"/>
<path d="M19.6,271.0 C20.8,244.3 19.4,216.4 21.2,189.1" fill="none" stroke="#f08c00" stroke-width="2" stroke-linecap="round"/>
<path d="M20.2,189.4 C129.2,189.3 239.3,190.0 348.7,189.8" fill="none" stroke="#f08c00" stroke-width="2" stroke-linecap="round"/>
<path d="M350.0,190.3 C349.7,216.8 351.2,243.8 350.5,268.8" fill="none" stroke="#f08c00" stroke-width="2" stroke-linecap="round"/>
<path d="M349.7,269.7 C241.0,270.7 131.0,270.8 19.0,270.3" fill="none" stroke="#f08c00" stroke-width="2" stroke-linecap="round"/>
<path d="M19.6,268.8 C18.9,242.2 19.2,215.8 18.7,189.1" fill="none" stroke="#f08c00" stroke-width="2" stroke-linecap="round"/>
<text text-anchor="middle" font-size="20" fill="#f08c00"><tspan x="185.0" y="223.5">.env</tspan></text>
<text text-anchor="middle" font-size="16" fill="#1e1e1e"><tspan x="185.0" y="248.5">configuration</tspan></text>
<path d="M379.6,189.6 C494.3,190.3 605.8,189.4 719.0,190.9" fill="none" stroke="#1971c2" stroke-width="2" stroke-linecap="round"/>
<path d="M719.0,189.6 C721.3,316.6 720.0,442.3 719.4,570.9" fill="none" stroke="#1971c2" stroke-width="2" stroke-linecap="round"/>
<path d="M719.1,570.1 C605.8,568.8 494.5,570.1 378.8,570.1" fill="none" stroke="#1971c2" stroke-width="2" stroke-linecap="round"/>
<path d="M379.7,569.1 C381.2,444.3 380.5,316.0 380.7,190.1" fill="none" stroke="#1971c2" stroke-width="2" stroke-linecap="round"/>
<path d="M381.3,190.9 C494.1,189.6 605.9,190.8 720.8,190.8" fill="none" stroke="#1971c2" stroke-width="2" stroke-linecap="round"/>
<path d="M718.8,188.8 C720.6,316.0 720.0,443.0 719.4,569.4" fill="none" stroke="#1971c2" stroke-width="2" stroke-linecap="round"/>
<path d="M721.3,571.2 C607.2,571.2 493.2,571.1 379.6,569.3" fill="none" stroke="#1971c2" stroke-width="2" stroke-linecap="round"/>
<path d="M381.0,570.9 C379.3,442.5 379.2,317.0 379.9,190.4" fill="none" stroke="#1971c2" stroke-width="2" stroke-linecap="round"/>
<text text-anchor="middle" font-size="20" fill="#1971c2"><tspan x="550.0" y="222.0">Cite (FastAPI · Python)</tspan></text>
<text text-anchor="middle" font-size="16" fill="#1e1e1e"><tspan x="550.0" y="247.0">chat server</tspan></text>
<rect x="405" y="270" width="290" height="64" rx="8" fill="#d0ebff" opacity="0.85"/>
<path d="M404.2,270.8 C502.7,270.7 599.0,269.9 694.6,270.8" fill="none" stroke="#1971c2" stroke-width="2" stroke-linecap="round"/>
<path d="M695.6,269.1 C696.2,291.1 694.7,313.8 694.0,333.1" fill="none" stroke="#1971c2" stroke-width="2" stroke-linecap="round"/>
<path d="M696.2,334.4 C599.4,334.8 500.7,334.8 404.6,334.1" fill="none" stroke="#1971c2" stroke-width="2" stroke-linecap="round"/>
<path d="M405.1,335.1 C404.0,311.4 406.2,291.7 404.8,271.0" fill="none" stroke="#1971c2" stroke-width="2" stroke-linecap="round"/>
<path d="M404.3,270.2 C502.5,269.2 597.7,269.5 694.4,269.8" fill="none" stroke="#1971c2" stroke-width="2" stroke-linecap="round"/>
<path d="M695.2,271.1 C694.0,292.4 694.6,312.6 694.8,335.1" fill="none" stroke="#1971c2" stroke-width="2" stroke-linecap="round"/>
<path d="M694.8,333.2 C598.3,334.1 501.7,332.7 403.7,334.8" fill="none" stroke="#1971c2" stroke-width="2" stroke-linecap="round"/>
<path d="M404.5,334.0 C404.1,312.6 405.6,291.5 405.1,270.7" fill="none" stroke="#1971c2" stroke-width="2" stroke-linecap="round"/>
<text text-anchor="middle" font-size="20" fill="#1971c2"><tspan x="550.0" y="295.5">HTTP API + SSE</tspan></text>
<text text-anchor="middle" font-size="16" fill="#1e1e1e"><tspan x="550.0" y="320.5">client gateway</tspan></text>
<rect x="405" y="345" width="290" height="64" rx="8" fill="#d0ebff" opacity="0.85"/>
<path d="M405.7,346.1 C501.1,345.7 598.4,345.2 694.9,345.3" fill="none" stroke="#1971c2" stroke-width="2" stroke-linecap="round"/>
<path d="M695.1,344.9 C695.0,366.4 695.5,387.5 696.1,409.5" fill="none" stroke="#1971c2" stroke-width="2" stroke-linecap="round"/>
<path d="M696.2,409.9 C599.3,410.1 501.0,409.2 404.1,408.0" fill="none" stroke="#1971c2" stroke-width="2" stroke-linecap="round"/>
<path d="M405.4,409.7 C404.8,386.6 404.3,365.2 406.0,344.1" fill="none" stroke="#1971c2" stroke-width="2" stroke-linecap="round"/>
<path d="M406.2,344.3 C502.2,345.4 597.4,346.0 696.2,344.7" fill="none" stroke="#1971c2" stroke-width="2" stroke-linecap="round"/>
<path d="M694.8,345.0 C695.0,367.6 695.9,386.8 694.6,408.2" fill="none" stroke="#1971c2" stroke-width="2" stroke-linecap="round"/>
<path d="M694.8,407.7 C597.9,409.6 500.4,409.1 404.6,409.3" fill="none" stroke="#1971c2" stroke-width="2" stroke-linecap="round"/>
<path d="M406.2,408.0 C405.0,386.5 406.3,367.1 404.4,343.8" fill="none" stroke="#1971c2" stroke-width="2" stroke-linecap="round"/>
<text text-anchor="middle" font-size="20" fill="#1971c2"><tspan x="550.0" y="370.5">ChatApplication</tspan></text>
<text text-anchor="middle" font-size="16" fill="#1e1e1e"><tspan x="550.0" y="395.5">run orchestration</tspan></text>
<rect x="405" y="420" width="290" height="64" rx="8" fill="#d0ebff" opacity="0.85"/>
<path d="M404.1,421.1 C501.5,421.1 599.2,419.4 695.2,420.5" fill="none" stroke="#1971c2" stroke-width="2" stroke-linecap="round"/>
<path d="M693.9,421.1 C693.9,440.2 695.5,462.5 695.3,484.8" fill="none" stroke="#1971c2" stroke-width="2" stroke-linecap="round"/>
<path d="M694.9,483.6 C597.3,484.9 500.5,484.9 405.1,485.1" fill="none" stroke="#1971c2" stroke-width="2" stroke-linecap="round"/>
<path d="M404.0,483.1 C404.4,461.7 405.1,440.7 403.8,419.2" fill="none" stroke="#1971c2" stroke-width="2" stroke-linecap="round"/>
<path d="M405.0,419.2 C501.2,419.5 599.0,419.5 694.6,418.7" fill="none" stroke="#1971c2" stroke-width="2" stroke-linecap="round"/>
<path d="M694.2,419.9 C694.4,440.1 695.6,462.8 696.1,483.0" fill="none" stroke="#1971c2" stroke-width="2" stroke-linecap="round"/>
<path d="M694.7,484.0 C599.2,483.8 501.7,484.9 405.5,485.3" fill="none" stroke="#1971c2" stroke-width="2" stroke-linecap="round"/>
<path d="M404.8,483.6 C404.6,463.5 405.5,441.7 403.8,419.0" fill="none" stroke="#1971c2" stroke-width="2" stroke-linecap="round"/>
<text text-anchor="middle" font-size="20" fill="#1971c2"><tspan x="550.0" y="445.5">Domain · In-memory State</tspan></text>
<text text-anchor="middle" font-size="16" fill="#1e1e1e"><tspan x="550.0" y="470.5">conversation state</tspan></text>
<rect x="405" y="495" width="290" height="64" rx="8" fill="#d0ebff" opacity="0.85"/>
<path d="M405.4,494.4 C500.8,493.9 599.2,496.0 694.3,494.5" fill="none" stroke="#1971c2" stroke-width="2" stroke-linecap="round"/>
<path d="M696.2,496.2 C694.9,515.4 694.9,537.1 695.1,558.3" fill="none" stroke="#1971c2" stroke-width="2" stroke-linecap="round"/>
<path d="M694.7,558.9 C599.5,558.5 501.3,557.7 405.0,558.2" fill="none" stroke="#1971c2" stroke-width="2" stroke-linecap="round"/>
<path d="M404.7,557.8 C405.0,536.4 404.4,515.3 403.8,494.5" fill="none" stroke="#1971c2" stroke-width="2" stroke-linecap="round"/>
<path d="M405.4,495.6 C501.0,495.2 598.4,495.7 696.0,494.7" fill="none" stroke="#1971c2" stroke-width="2" stroke-linecap="round"/>
<path d="M695.4,493.8 C694.5,517.6 694.1,538.2 695.9,560.0" fill="none" stroke="#1971c2" stroke-width="2" stroke-linecap="round"/>
<path d="M695.1,559.0 C598.7,559.6 502.5,558.1 405.9,559.8" fill="none" stroke="#1971c2" stroke-width="2" stroke-linecap="round"/>
<path d="M405.5,558.3 C405.8,537.9 406.0,516.8 403.8,494.0" fill="none" stroke="#1971c2" stroke-width="2" stroke-linecap="round"/>
<text text-anchor="middle" font-size="20" fill="#1971c2"><tspan x="550.0" y="520.5">AgentRuntimePort</tspan></text>
<text text-anchor="middle" font-size="16" fill="#1e1e1e"><tspan x="550.0" y="545.5">agent bridge</tspan></text>
<path d="M820.0,188.7 C946.8,190.3 1073.7,190.5 1200.8,190.6" fill="none" stroke="#6741d9" stroke-width="2" stroke-linecap="round"/>
<path d="M1200.6,189.4 C1200.0,316.8 1200.4,442.2 1198.9,569.4" fill="none" stroke="#6741d9" stroke-width="2" stroke-linecap="round"/>
<path d="M1200.0,569.7 C1073.9,569.2 947.3,571.2 819.9,570.5" fill="none" stroke="#6741d9" stroke-width="2" stroke-linecap="round"/>
<path d="M819.1,569.4 C820.7,443.6 820.4,315.6 820.6,189.5" fill="none" stroke="#6741d9" stroke-width="2" stroke-linecap="round"/>
<path d="M820.4,190.5 C946.8,188.7 1072.2,189.4 1200.5,189.5" fill="none" stroke="#6741d9" stroke-width="2" stroke-linecap="round"/>
<path d="M1201.0,189.2 C1200.0,316.6 1199.9,442.3 1201.2,571.1" fill="none" stroke="#6741d9" stroke-width="2" stroke-linecap="round"/>
<path d="M1199.9,569.4 C1072.1,569.9 947.5,571.2 819.2,571.2" fill="none" stroke="#6741d9" stroke-width="2" stroke-linecap="round"/>
<path d="M821.2,569.0 C819.2,443.5 819.1,316.7 820.8,190.0" fill="none" stroke="#6741d9" stroke-width="2" stroke-linecap="round"/>
<text text-anchor="middle" font-size="20" fill="#6741d9"><tspan x="1010.0" y="222.0">Wiki agent · pi sidecar</tspan></text>
<text text-anchor="middle" font-size="16" fill="#1e1e1e"><tspan x="1010.0" y="247.0">grounded answering</tspan></text>
<rect x="845" y="270" width="330" height="85" rx="8" fill="#e5dbff" opacity="0.85"/>
<path d="M845.0,269.9 C956.0,270.0 1063.8,268.7 1174.5,269.1" fill="none" stroke="#6741d9" stroke-width="2" stroke-linecap="round"/>
<path d="M1175.7,270.9 C1174.6,297.9 1175.9,325.4 1174.0,356.1" fill="none" stroke="#6741d9" stroke-width="2" stroke-linecap="round"/>
<path d="M1174.7,356.3 C1065.6,356.0 954.5,354.7 845.2,354.6" fill="none" stroke="#6741d9" stroke-width="2" stroke-linecap="round"/>
<path d="M845.9,354.4 C844.8,326.1 843.8,297.3 846.1,269.3" fill="none" stroke="#6741d9" stroke-width="2" stroke-linecap="round"/>
<path d="M846.2,271.0 C954.4,270.0 1064.2,269.7 1175.8,270.3" fill="none" stroke="#6741d9" stroke-width="2" stroke-linecap="round"/>
<path d="M1173.8,270.6 C1176.1,299.5 1175.1,327.2 1174.9,355.7" fill="none" stroke="#6741d9" stroke-width="2" stroke-linecap="round"/>
<path d="M1174.0,354.9 C1065.4,354.4 953.8,356.1 844.6,354.5" fill="none" stroke="#6741d9" stroke-width="2" stroke-linecap="round"/>
<path d="M844.5,355.1 C845.6,327.9 844.4,298.7 844.7,269.1" fill="none" stroke="#6741d9" stroke-width="2" stroke-linecap="round"/>
<text text-anchor="middle" font-size="20" fill="#6741d9"><tspan x="1010.0" y="306.0">1. Research</tspan></text>
<text text-anchor="middle" font-size="16" fill="#1e1e1e"><tspan x="1010.0" y="331.0">evidence gathering</tspan></text>
<rect x="845" y="372" width="330" height="85" rx="8" fill="#e5dbff" opacity="0.85"/>
<path d="M844.9,371.1 C955.0,371.3 1066.1,373.3 1174.2,370.9" fill="none" stroke="#6741d9" stroke-width="2" stroke-linecap="round"/>
<path d="M1175.2,373.0 C1174.6,399.3 1174.3,428.0 1175.6,456.8" fill="none" stroke="#6741d9" stroke-width="2" stroke-linecap="round"/>
<path d="M1173.9,456.4 C1064.8,457.1 954.7,456.6 846.2,456.0" fill="none" stroke="#6741d9" stroke-width="2" stroke-linecap="round"/>
<path d="M844.4,456.3 C845.0,429.0 845.9,399.6 844.7,371.9" fill="none" stroke="#6741d9" stroke-width="2" stroke-linecap="round"/>
<path d="M843.8,372.5 C956.2,372.9 1066.0,370.8 1176.0,371.9" fill="none" stroke="#6741d9" stroke-width="2" stroke-linecap="round"/>
<path d="M1175.8,372.9 C1175.2,399.0 1174.7,429.8 1176.2,456.3" fill="none" stroke="#6741d9" stroke-width="2" stroke-linecap="round"/>
<path d="M1176.1,457.6 C1064.0,456.1 955.1,457.5 845.4,457.7" fill="none" stroke="#6741d9" stroke-width="2" stroke-linecap="round"/>
<path d="M844.3,458.1 C844.9,428.8 843.8,401.1 845.4,371.5" fill="none" stroke="#6741d9" stroke-width="2" stroke-linecap="round"/>
<text text-anchor="middle" font-size="20" fill="#6741d9"><tspan x="1010.0" y="408.0">2. Compose</tspan></text>
<text text-anchor="middle" font-size="16" fill="#1e1e1e"><tspan x="1010.0" y="433.0">answer writing</tspan></text>
<rect x="845" y="474" width="330" height="85" rx="8" fill="#e5dbff" opacity="0.85"/>
<path d="M845.2,473.7 C955.5,473.0 1063.9,474.1 1174.3,474.3" fill="none" stroke="#6741d9" stroke-width="2" stroke-linecap="round"/>
<path d="M1175.4,475.0 C1173.7,501.8 1174.9,531.9 1174.9,558.3" fill="none" stroke="#6741d9" stroke-width="2" stroke-linecap="round"/>
<path d="M1173.8,559.0 C1064.3,560.2 955.5,558.5 845.5,558.8" fill="none" stroke="#6741d9" stroke-width="2" stroke-linecap="round"/>
<path d="M843.8,558.6 C844.4,531.1 846.1,501.6 844.8,474.5" fill="none" stroke="#6741d9" stroke-width="2" stroke-linecap="round"/>
<path d="M844.2,475.2 C954.2,474.8 1065.6,474.0 1174.5,474.8" fill="none" stroke="#6741d9" stroke-width="2" stroke-linecap="round"/>
<path d="M1176.2,474.0 C1174.3,501.6 1175.7,530.1 1174.2,558.3" fill="none" stroke="#6741d9" stroke-width="2" stroke-linecap="round"/>
<path d="M1174.7,558.3 C1064.8,559.4 956.2,558.1 846.2,558.1" fill="none" stroke="#6741d9" stroke-width="2" stroke-linecap="round"/>
<path d="M846.0,559.6 C843.8,529.5 844.7,503.4 846.3,475.1" fill="none" stroke="#6741d9" stroke-width="2" stroke-linecap="round"/>
<text text-anchor="middle" font-size="20" fill="#6741d9"><tspan x="1010.0" y="510.0">Tokenizer (per Model Family)</tspan></text>
<text text-anchor="middle" font-size="16" fill="#1e1e1e"><tspan x="1010.0" y="535.0">token counting</tspan></text>
<rect x="820" y="650" width="380" height="80" rx="8" fill="#ffe8cc" opacity="0.85"/>
<path d="M819.7,649.6 C947.3,648.8 1073.8,649.7 1199.1,648.7" fill="none" stroke="#e8590c" stroke-width="2" stroke-linecap="round"/>
<path d="M1201.2,649.2 C1199.4,676.3 1201.2,702.4 1199.6,730.8" fill="none" stroke="#e8590c" stroke-width="2" stroke-linecap="round"/>
<path d="M1199.7,731.1 C1074.2,729.8 945.5,729.9 819.2,729.6" fill="none" stroke="#e8590c" stroke-width="2" stroke-linecap="round"/>
<path d="M820.7,728.8 C821.0,702.1 819.8,677.5 818.8,648.9" fill="none" stroke="#e8590c" stroke-width="2" stroke-linecap="round"/>
<path d="M819.6,649.4 C947.8,649.4 1074.0,651.0 1201.2,650.3" fill="none" stroke="#e8590c" stroke-width="2" stroke-linecap="round"/>
<path d="M1198.7,650.7 C1199.4,677.2 1199.5,702.7 1201.1,730.3" fill="none" stroke="#e8590c" stroke-width="2" stroke-linecap="round"/>
<path d="M1201.2,731.2 C1074.5,728.8 946.0,729.9 819.7,729.4" fill="none" stroke="#e8590c" stroke-width="2" stroke-linecap="round"/>
<path d="M820.8,730.6 C819.8,703.3 821.1,675.8 820.8,650.7" fill="none" stroke="#e8590c" stroke-width="2" stroke-linecap="round"/>
<text text-anchor="middle" font-size="20" fill="#e8590c"><tspan x="1010.0" y="683.5">Ollama (Local · LAN)</tspan></text>
<text text-anchor="middle" font-size="16" fill="#1e1e1e"><tspan x="1010.0" y="708.5">model serving</tspan></text>
<rect x="1280" y="335" width="360" height="80" rx="8" fill="#ffe8cc" opacity="0.85"/>
<path d="M1280.7,334.3 C1399.6,335.7 1518.9,334.2 1638.9,333.8" fill="none" stroke="#e8590c" stroke-width="2" stroke-linecap="round"/>
<path d="M1641.3,334.4 C1640.1,361.2 1641.2,389.3 1638.9,414.0" fill="none" stroke="#e8590c" stroke-width="2" stroke-linecap="round"/>
<path d="M1639.8,415.3 C1520.0,415.5 1399.9,414.3 1280.5,415.6" fill="none" stroke="#e8590c" stroke-width="2" stroke-linecap="round"/>
<path d="M1279.5,415.2 C1280.9,388.8 1279.0,362.6 1279.7,335.6" fill="none" stroke="#e8590c" stroke-width="2" stroke-linecap="round"/>
<path d="M1281.0,335.2 C1399.2,334.3 1519.3,334.1 1639.5,334.7" fill="none" stroke="#e8590c" stroke-width="2" stroke-linecap="round"/>
<path d="M1640.4,336.3 C1641.3,361.7 1639.3,389.1 1639.0,414.9" fill="none" stroke="#e8590c" stroke-width="2" stroke-linecap="round"/>
<path d="M1639.5,414.0 C1520.8,415.9 1401.1,413.8 1279.2,416.2" fill="none" stroke="#e8590c" stroke-width="2" stroke-linecap="round"/>
<path d="M1279.9,414.4 C1280.2,389.5 1279.7,362.6 1280.7,336.2" fill="none" stroke="#e8590c" stroke-width="2" stroke-linecap="round"/>
<text text-anchor="middle" font-size="20" fill="#e8590c"><tspan x="1460.0" y="368.5">Markdown Wiki</tspan></text>
<text text-anchor="middle" font-size="16" fill="#1e1e1e"><tspan x="1460.0" y="393.5">knowledge source</tspan></text>
<path d="M549.4,120.3 C549.3,143.0 549.1,165.9 550.4,189.2" fill="none" stroke="#1e1e1e" stroke-width="2" stroke-linecap="round"/>
<path d="M549.5,189.2 C550.7,184.9 554.5,179.8 556.8,176.1" fill="none" stroke="#1e1e1e" stroke-width="2" stroke-linecap="round"/>
<path d="M550.4,188.9 C546.9,184.3 545.7,180.8 543.1,176.5" fill="none" stroke="#1e1e1e" stroke-width="2" stroke-linecap="round"/>
<text text-anchor="middle" font-size="13" fill="#868e96"><tspan x="600.0" y="157.0">SSE / JSON</tspan></text>
<path d="M349.6,229.8 C359.5,231.2 369.5,230.2 380.9,231.3" fill="none" stroke="#1e1e1e" stroke-width="2" stroke-linecap="round"/>
<path d="M378.7,231.0 C375.0,227.2 371.3,225.2 365.8,224.8" fill="none" stroke="#1e1e1e" stroke-width="2" stroke-linecap="round"/>
<path d="M378.7,230.1 C375.1,233.0 370.6,233.1 366.4,237.1" fill="none" stroke="#1e1e1e" stroke-width="2" stroke-linecap="round"/>
<path d="M694.4,527.1 C737.0,526.7 778.3,526.1 821.1,526.0" fill="none" stroke="#1e1e1e" stroke-width="2" stroke-linecap="round"/>
<path d="M819.0,528.2 C815.3,525.8 811.9,522.2 807.2,521.0" fill="none" stroke="#1e1e1e" stroke-width="2" stroke-linecap="round"/>
<path d="M820.3,527.8 C814.2,530.1 810.4,532.1 805.1,533.7" fill="none" stroke="#1e1e1e" stroke-width="2" stroke-linecap="round"/>
<path d="M694.2,526.3 C698.9,528.8 705.2,531.9 708.7,533.0" fill="none" stroke="#1e1e1e" stroke-width="2" stroke-linecap="round"/>
<path d="M696.0,525.8 C699.4,524.0 703.7,523.6 709.2,521.7" fill="none" stroke="#1e1e1e" stroke-width="2" stroke-linecap="round"/>
<text text-anchor="middle" font-size="13" fill="#868e96"><tspan x="770.0" y="498.0">JSONL</tspan><tspan x="770.0" y="514.2">over stdio</tspan></text>
<path d="M1009.5,569.8 C1009.0,596.9 1010.1,623.7 1010.2,649.8" fill="none" stroke="#1e1e1e" stroke-width="2" stroke-linecap="round"/>
<path d="M1010.3,650.0 C1012.4,645.2 1013.8,639.4 1015.3,636.7" fill="none" stroke="#1e1e1e" stroke-width="2" stroke-linecap="round"/>
<path d="M1009.0,649.0 C1008.7,645.2 1005.2,640.6 1003.8,634.9" fill="none" stroke="#1e1e1e" stroke-width="2" stroke-linecap="round"/>
<text text-anchor="middle" font-size="13" fill="#868e96"><tspan x="1100.0" y="612.0">OpenAI-compatible /v1</tspan></text>
<path d="M1200.7,375.0 C1225.5,375.4 1252.2,375.6 1278.8,375.0" fill="none" stroke="#1e1e1e" stroke-width="2" stroke-linecap="round"/>
<path d="M1281.3,375.6 C1275.0,374.2 1269.7,371.9 1266.8,368.2" fill="none" stroke="#1e1e1e" stroke-width="2" stroke-linecap="round"/>
<path d="M1279.1,375.7 C1276.6,377.0 1271.9,380.1 1267.1,379.9" fill="none" stroke="#1e1e1e" stroke-width="2" stroke-linecap="round"/>
<text text-anchor="middle" font-size="13" fill="#868e96"><tspan x="1240.0" y="362.0">read-only</tspan></text>
<text text-anchor="middle" font-size="24" fill="#1e1e1e"><tspan x="1320.0" y="64.0">Cite — Markdown Wiki × Ollama Local LLM</tspan></text>
<text text-anchor="middle" font-size="14" fill="#868e96"><tspan x="1320.0" y="94.0">Every answer cites its Wiki sources</tspan></text>
</svg>
